Patient4_TMGait_0pt4_02_left_09_EMG.mot
version=1
nRows=19
nColumns=33
inDegrees=no
endheader
time	1LAddLong	2LGlutMax	3LGlutMed	4LIliopsoas	5LSemiMemb	6LBicFemLong	7LRecFem	8LVastMed	9LVastLat	10LGasMed	11LTibAnt	12lTibPost	13LPeroneusLong	14LSol	15LExtDigLong	16LFlexDigLong	17RAddLong	18RGlutMax	19RGlutMed	20RIliopsoas	21RSemiMemb	22RBicFemLong	23RRecFem	24RVastMed	25RVastLat	26RGasMed	27RTibAnt	28RTibPost	29RPeroneusLong	30RSol	31RExtDigLong	32RFlexDigLong
13.42	0.010071	0.027008	-0.061951	0.013275	-0.023499	0.010376	-0.044403	0.007172	0.18265	-0.018768	0.018158	-0.000458	-0.012817	-0.15671	0.10086	-0.01709	-0.00885	-0.14236	0.34149	-0.12665	0.12238	-0.073395	-0.4007	-0.063019	0.026245	0.016937	-0.27618	0.00885	0.26169	-0.19333	0.000305	-0.004425
13.421	0.013123	0.074005	-0.017548	0.007324	0.001831	0.03479	-0.027618	0.018311	0.16556	-0.026855	0.022278	0.002136	-0.030518	-0.11078	0.13825	0.011749	-0.018158	-0.038147	0.6514	-0.17425	0.026245	-0.03067	-0.74295	0.073242	0.2829	0.018616	-0.25055	0.009155	-1.6025	-0.15457	0.002136	-0.008545
13.422	0.00824	0.035553	-0.02182	0.01297	0.019073	0.075073	-0.029755	0.001373	0.12268	-0.019226	0.040588	-0.004425	-0.027771	-0.13367	0.14114	0.006104	-0.021973	-0.055084	0.055542	-0.14389	-0.12161	0.021057	-0.72632	0.40543	0.34561	0.007477	-0.22354	0.011902	-1.362	-0.11322	0.003052	-0.011902
13.423	0.004425	0.039825	0.025787	0.010223	0.002899	0.082855	-0.041962	0.015259	0.11688	-0.024109	0.067444	0.001831	-0.021362	-0.16571	0.13534	0.005035	-0.013733	-0.039063	-0.48019	0.001984	-0.067902	0.024414	-0.41473	0.18555	0.12909	-0.006866	-0.46646	0.002136	0.86624	0.054474	-0.001373	-0.017395
13.424	0.002441	0.020752	0.001221	0.01358	0.000916	0.11383	-0.02594	0.010986	0.09491	-0.023499	-0.027008	0.001373	-0.020752	-0.039063	0.12878	-0.001221	0.012512	-0.029907	-0.39444	0.20844	0.075073	-0.019989	-0.13443	0.014954	0.019836	-0.012665	-0.30426	0.004425	1.1501	0.15137	-0.000916	-0.018311
13.425	0.005341	0.025024	-0.023956	0.018005	-0.021515	0.097046	-0.029907	0.00946	0.089722	-0.026703	-0.013885	0.003967	-0.033112	0.052948	0.10803	0.001373	0.014038	-0.053406	0.23819	0.18662	0.18646	-0.014343	-0.061493	-0.072784	0.050964	-0.0177	-0.25116	0.006561	0.56244	0.12665	-0.00412	-0.01709
13.426	0.000458	0.011292	-0.01709	0.011444	-0.031586	0.034332	-0.028992	0.009766	0.09201	-0.031891	-0.002899	0.005646	-0.047455	0.042725	0.11429	0.007172	0.016479	-0.080719	0.14648	0.11261	0.21149	0.029907	-0.10819	-0.053864	0.1062	-0.016632	0.047302	0.008087	0.11002	0.14893	-0.006561	-0.015259
13.427	0.00351	-0.024109	-0.005951	0.011292	-0.005035	0.03067	-0.05249	0.005798	0.072632	-0.026093	-0.058441	0.002899	-0.027924	0.023804	0.092468	0.020294	0.02594	-0.10025	-0.52124	0.14832	-0.11108	0.037994	-0.078125	0.031738	0.10284	-0.013123	-0.048828	-0.000305	0.041199	0.1355	-0.006561	-0.013123
13.428	0.006409	-0.008698	-0.000458	0.015869	-0.011902	0.049286	-0.028992	0.005341	0.075684	-0.021667	-0.05661	0.01297	-0.045319	-0.034332	0.13382	0.005341	0.018158	-0.05127	-0.36896	0.079346	-0.039825	-0.026703	-0.12177	0.030823	0.060272	-0.005341	-0.12054	0.002441	0.007172	0.057831	-0.003357	-0.015717
13.429	0.006409	0.011139	-0.007324	0.009155	-0.026703	0.049286	-0.045929	0.009155	0.05127	-0.02533	-0.045319	0.006866	-0.045471	-0.031128	0.047913	0.0177	-0.005341	0.040436	0.007172	0.05127	0.037384	-0.091858	-0.12009	-0.003204	0.053101	-0.003204	-0.036926	0.003662	-0.027161	0.11383	-0.004272	-0.004578
13.43	0.001678	-0.011597	-0.046387	0.005341	-0.012054	0.060425	-0.028076	0.002136	0.057068	-0.028687	-0.019226	0.003052	0.032196	-0.033417	0.082703	0.012512	-0.012817	-0.023956	-0.50995	0.018921	0.030823	-0.023041	-0.062256	-0.021973	0.03479	0.000763	0.14877	-0.001373	0.016632	0.067291	-0.010529	0.001831
13.431	0.00412	-0.007935	-0.079803	-0.014038	-0.035706	0.092926	-0.03952	0.006409	0.062866	-0.009613	0.10742	0.00412	-0.010376	-0.036926	0.043793	0.007172	-0.005341	0.02182	0.03952	0.003662	0.06897	0.065765	-0.03006	-0.12863	0.011292	0.000458	0.12528	0.001068	0.022278	-0.002747	-0.001678	-0.006256
13.432	0.00824	0.035553	-0.12512	0.001984	-0.046387	0.080566	-0.061188	0.003357	0.071564	-0.010681	0.13412	0.006104	-0.076141	-0.028687	-0.024109	0.007782	0.005035	0.063782	0.40131	-0.01236	0.10437	0.093231	0.016174	-0.1033	0.004578	-0.008698	0.058441	-0.003662	-0.050659	-0.023499	-0.002594	-0.007935
13.433	0.013885	0.023346	-0.10391	-0.009766	0.007324	0.048981	-0.045776	0.004272	0.0737	-0.015106	0.15793	0.003815	-0.068207	-0.028992	0.036926	0.002899	-0.009918	0.091858	0.088654	-0.005951	-0.095215	0.14633	0.008087	0.11337	0.010223	-0.011139	0.09079	0.00473	-0.063019	0.024567	-0.004272	0.000763
13.434	0.009766	-0.006866	-0.021362	-0.010071	-0.014496	0.011444	-0.045624	0.004425	0.068512	-0.022736	0.11444	0.007629	-0.066681	0.033875	0.037079	0.002747	-0.028992	0.028381	-0.13504	-0.049286	-0.049591	0.10315	-0.015564	0.23331	-0.003052	-0.007935	0.20401	-0.000763	-0.024261	0.072021	-0.006714	-0.00061
13.435	0.010376	-0.01709	0.043488	-0.000763	-0.019073	-0.002594	-0.039825	0.009918	0.072021	-0.031433	0.19424	0.005493	-0.048218	0.030975	0.000153	0.00061	-0.02243	0.06012	-0.3595	-0.096893	-0.065155	0.057678	-0.022888	0.2507	0.017853	-0.006561	0.24094	0.000305	0.015717	0.035095	0.00351	-0.009155
13.436	0.021973	-0.03952	0.028687	0.010071	-0.019684	0.006104	-0.048523	0.006866	0.076447	-0.00946	0.18265	0.002594	-0.076141	-0.057678	-0.052185	-0.000763	-0.0177	0.055389	-0.23605	-0.051727	-0.015411	0.058441	0.013123	0.17578	-0.00946	-0.010223	0.18646	-0.005035	-0.025024	-0.006104	-0.005341	-0.007629
13.437	0.014648	-0.024872	0.027924	0.014343	0.021362	0.033264	-0.048065	0.009918	0.077667	-0.014343	0.071869	0.003204	-0.061188	-0.068817	-0.08316	-0.010376	0.00061	0.021515	-0.081329	-0.014648	0.023956	0.053558	0.020905	0.037079	-0.019684	-0.018463	0.15213	0.001984	-0.002289	-0.000458	-0.001831	-0.010681
13.438	0.015106	-0.030365	0.032501	0.010071	0.003357	0.056915	-0.057526	0.013428	0.066223	-0.022125	0.009918	0.002441	-0.057983	-0.073395	-0.05249	-0.01236	0.014954	0.053864	0.36224	0.057373	0.00473	0.061493	-0.050354	-0.067139	-0.037537	-0.01236	0.12482	0.000153	0.034943	0.003967	-0.002747	-0.010376
